# xmcd
#
# Track frame offsets: 
#        150
#        28904
#        53992
#        84873
#        111322
#        135784
#        164150
#        193519
#        216865
#        245703
#
# Disc length: 3604 seconds
#
# Revision: 0
# Processed by: cddbd v1.5.2PL0 Copyright (c) Steve Scherf et al.
# Submitted via: ExactAudioCopy v0.99pb3
#
DISCID=8c0e120a
DTITLE=Five Feathers Music - Band in the Pocket - Disk 2
DYEAR=1999
DGENRE=Blues
TTITLE0=Tune-up Notes
TTITLE1=Handful Of Blues (E)
TTITLE2=Blue Funk (G)
TTITLE3=Cajun Cookin' (C)
TTITLE4=Gospel Truth (F)
TTITLE5=Shake Rattle and Swing (D)
TTITLE6=No Doubt (E)
TTITLE7=Very Slow Blues in A minor (A minor)
TTITLE8=Just Want a Little Blues (A)
TTITLE9=Rock 'Till Ya' Drop (B)
EXTD=
EXTT0=
EXTT1=
EXTT2=
EXTT3=
EXTT4=
EXTT5=
EXTT6=
EXTT7=
EXTT8=
EXTT9=
PLAYORDER=
